<?xml version="1.0" encoding="UTF-8" standalone="no"?>
<svg
   width="40"
   height="20"
   version="1.1"
   xml:space="preserve"
   style="clip-rule:evenodd;fill-rule:evenodd;stroke-linejoin:round;stroke-miterlimit:2"
   id="svg4"
   xmlns="http://www.w3.org/2000/svg"
   xmlns:svg="http://www.w3.org/2000/svg"><defs
   id="defs4" />
     <path
   d="m 16.804269,17.635218 c -0.598771,1.38619 -1.227309,2.135973 -2.954988,2.165954 C 11.555795,19.840982 8.4042509,19.955865 5.8534458,19.39252 4.8126071,19.162748 3.6003043,18.973791 3.1395407,17.848866 2.7161695,16.814892 1.9914447,12.212145 1.7447037,10.801516 1.5316651,10.563178 1.1577405,10.647831 0.91837958,10.624652 -0.20068807,10.51682 -0.11384901,8.610116 0.95921608,8.4700357 c 0,0 1.51045842,0.057191 3.04133512,-0.095738 0.8373942,-0.083393 1.8371504,-0.2700829 6.1525348,-0.2083568 3.356957,0.047869 5.508745,0.6250706 5.835437,0.7019132 1.336288,0.3144248 2.965812,0.9667053 4.192137,0.928158 0.785734,-0.02469 1.503079,1.7479809 0.01599,1.9500389 -1.078231,0.146631 -1.328416,0.345918 -1.891763,2.022347 -0.530382,1.578675 -0.801231,2.248087 -1.500618,3.86682 z"
   id="path1"
   style="clip-rule:evenodd;fill-rule:evenodd;stroke-width:0.0248955;stroke-linejoin:round;stroke-miterlimit:2" />
     <path
   d="M 4.2652504,17.918654 C 3.5720139,17.139142 2.9154319,13.021638 2.7442139,11.733453 2.429576,9.3669529 4.8226932,9.237958 5.954553,9.1616193 7.5395503,9.0547954 16.001069,8.8718848 17.450765,10.550581 c 0.854614,0.98938 -0.189914,4.11171 -1.425095,6.677749 -0.58106,1.207563 -1.128662,1.746469 -2.910708,1.763097 -2.123744,0.02016 -7.8666836,0.03225 -8.8497116,-1.072773 z"
   style="clip-rule:evenodd;fill:#ffffff;fill-rule:evenodd;stroke-width:0.0248955;stroke-linejoin:round;stroke-miterlimit:2"
   id="path2" />
     <path
   d="m 23.495927,17.635218 c 0.598771,1.38619 1.227309,2.135973 2.954988,2.165954 2.293486,0.03981 5.44503,0.154693 7.995836,-0.408652 1.040838,-0.229772 2.253141,-0.418729 2.713905,-1.543654 0.423371,-1.033974 1.148096,-5.636721 1.394837,-7.04735 0.213038,-0.238338 0.288561,-0.07458 0.527922,-0.0975 1.119068,-0.107832 1.032229,-2.014536 -0.04084,-2.1546163 0,0 -1.212057,-0.022171 -2.742934,-0.1751004 -0.837394,-0.083393 -1.83715,-0.2700829 -6.152535,-0.2083569 -3.356957,0.047869 -5.508745,0.6250706 -5.835437,0.7019132 -1.336288,0.3144249 -2.965812,0.9667054 -4.192137,0.9281581 -0.785734,-0.02469 -1.503079,1.7479803 -0.01599,1.9500383 1.078231,0.146631 1.328416,0.345918 1.891763,2.022347 0.530382,1.578675 0.801231,2.248087 1.500618,3.866821 z"
   id="path3"
   style="clip-rule:evenodd;fill-rule:evenodd;stroke-width:0.0248955;stroke-linejoin:round;stroke-miterlimit:2" />
     <path
   d="m 36.034946,17.918654 c 0.693236,-0.779512 1.349818,-4.897016 1.521036,-6.185201 C 37.87062,9.3669529 35.477503,9.237958 34.345643,9.1616193 32.760646,9.0547954 24.299127,8.8718848 22.849431,10.550581 c -0.854614,0.98938 0.189914,4.11171 1.425095,6.677749 0.58106,1.207563 1.128662,1.746469 2.910708,1.763097 2.123744,0.02016 7.866684,0.03225 8.849712,-1.072773 z"
   style="clip-rule:evenodd;fill:#ffffff;fill-rule:evenodd;stroke-width:0.0248955;stroke-linejoin:round;stroke-miterlimit:2"
   id="path4" /></svg>
