<?xml version="1.0" encoding="UTF-8" standalone="no"?><!DOCTYPE svg PUBLIC "-//W3C//DTD SVG 1.1//EN" "http://www.w3.org/Graphics/SVG/1.1/DTD/svg11.dtd"><svg width="100%" height="100%" viewBox="0 0 55 40" version="1.1" xmlns="http://www.w3.org/2000/svg" xmlns:xlink="http://www.w3.org/1999/xlink" xml:space="preserve" xmlns:serif="http://www.serif.com/" style="fill-rule:evenodd;clip-rule:evenodd;stroke-linejoin:round;stroke-miterlimit:2;"><g><path id="G" d="M23.957,30.216c0.097,-0.025 -0.027,0.079 -0.476,0.388c-2.078,1.423 -4.591,2.256 -7.299,2.256c-6.59,0 -12.038,-4.941 -12.834,-11.32l-1.734,-0c-0.427,-0 -0.838,-0.171 -1.141,-0.473c-0.302,-0.303 -0.473,-0.714 -0.473,-1.143c0,-0.429 0.171,-0.841 0.474,-1.144c0.304,-0.304 0.715,-0.474 1.144,-0.474l1.732,-0c0.71,-5.683 5.115,-10.226 10.731,-11.146c0.471,-0.077 0.95,0.055 1.312,0.362c0.363,0.306 0.572,0.759 0.572,1.233c0.001,0 0.001,0.002 0.001,0.003c0,0.789 -0.572,1.464 -1.351,1.594c-4.081,0.664 -7.311,3.878 -7.997,7.954l9.348,-0l0,0.004l3.284,0c0.071,-0.004 0.143,-0.005 0.213,-0.005l0.103,-0c3.721,0.026 6.734,3.055 6.734,6.782c-0,2.048 -0.908,3.883 -2.343,5.129Zm-9.657,-0.773c-3.941,-0.771 -7.017,-3.928 -7.684,-7.903l7.119,-0l0.004,-0.004l5.807,-0l0.002,0.007c1.942,0.018 3.512,1.599 3.512,3.544c0,1.246 -0.645,2.343 -1.618,2.975l0.002,0.008c-1.516,0.982 -3.322,1.552 -5.26,1.552c-0.64,0 -1.247,-0.053 -1.852,-0.172c-0.016,-0.002 -0.016,-0.002 -0.032,-0.007Z" style="fill:#fff;"/><path id="A" d="M31.043,30.216c-0.097,-0.025 0.025,0.079 0.476,0.388c2.078,1.424 4.591,2.258 7.297,2.258c6.592,-0 12.04,-4.943 12.835,-11.322l1.733,-0c0.428,-0 0.839,-0.171 1.142,-0.473c0.303,-0.303 0.474,-0.714 0.474,-1.141c0,-0.429 -0.17,-0.842 -0.474,-1.146c-0.304,-0.302 -0.715,-0.474 -1.146,-0.474l-1.729,-0c-0.711,-5.683 -5.117,-10.225 -10.734,-11.144c-0.469,-0.077 -0.948,0.055 -1.31,0.36c-0.363,0.308 -0.573,0.759 -0.573,1.233l-0,0.003c-0,0.791 0.572,1.464 1.351,1.594c4.081,0.665 7.311,3.88 7.997,7.954l-9.348,-0l-0,0.004l-3.284,0c-0.071,-0.003 -0.143,-0.005 -0.214,-0.005l-0.102,-0c-3.722,0.027 -6.734,3.056 -6.734,6.784c0,2.046 0.908,3.881 2.343,5.127Zm9.657,-0.773c3.939,-0.77 7.017,-3.927 7.684,-7.903l-7.119,-0l-0.004,-0.004l-5.808,-0l-0.003,0.007c-1.94,0.018 -3.51,1.599 -3.51,3.544c-0,1.248 0.643,2.343 1.618,2.975l-0.004,0.009c1.517,0.982 3.324,1.551 5.262,1.551c0.64,0 1.247,-0.052 1.852,-0.172c0.016,-0.001 0.016,-0.001 0.032,-0.007Z" style="fill:#fff;"/></g></svg>