<?xml version="1.0" encoding="UTF-8" standalone="no"?><!DOCTYPE svg PUBLIC "-//W3C//DTD SVG 1.1//EN" "http://www.w3.org/Graphics/SVG/1.1/DTD/svg11.dtd"><svg width="100%" height="100%" viewBox="0 0 40 40" version="1.1" xmlns="http://www.w3.org/2000/svg" xmlns:xlink="http://www.w3.org/1999/xlink" xml:space="preserve" xmlns:serif="http://www.serif.com/" style="fill-rule:evenodd;clip-rule:evenodd;stroke-linecap:round;stroke-linejoin:round;"><g><path d="M3.618,15.086c-0,-1.81 1.467,-3.277 3.277,-3.277l26.212,0c1.809,0 3.275,1.467 3.275,3.277l0,18.021c0,1.809 -1.466,3.275 -3.275,3.275l-26.212,0c-1.81,0 -3.277,-1.466 -3.277,-3.275l-0,-18.021Z" style="fill:none;fill-rule:nonzero;stroke:#fff;stroke-width:3.27px;"/><path d="M26.553,11.809l-0,-4.914c-0,-1.81 -1.466,-3.277 -3.276,-3.277l-6.553,-0c-1.809,-0 -3.277,1.467 -3.277,3.277l0,4.914" style="fill:none;fill-rule:nonzero;stroke:#fff;stroke-width:3.27px;"/><path d="M36.382,20.001l-32.764,-0" style="fill:none;fill-rule:nonzero;stroke:#fff;stroke-width:3.27px;"/><path d="M11.809,20.001l0,3.276" style="fill:none;fill-rule:nonzero;stroke:#fff;stroke-width:3.27px;"/><path d="M28.192,20.001l-0,3.276" style="fill:none;fill-rule:nonzero;stroke:#fff;stroke-width:3.27px;"/></g></svg>