<?xml version="1.0" encoding="UTF-8" standalone="no"?>
<svg
   width="20"
   height="20"
   version="1.1"
   xml:space="preserve"
   style="clip-rule:evenodd;fill-rule:evenodd;stroke-linejoin:round;stroke-miterlimit:2"
   id="svg4"
   sodipodi:docname="leftGlassesLogo.svg"
   inkscape:version="1.3.2 (091e20e, 2023-11-25)"
   xmlns:inkscape="http://www.inkscape.org/namespaces/inkscape"
   xmlns:sodipodi="http://sodipodi.sourceforge.net/DTD/sodipodi-0.dtd"
   xmlns="http://www.w3.org/2000/svg"
   xmlns:svg="http://www.w3.org/2000/svg"><defs
     id="defs4" /><sodipodi:namedview
     id="namedview4"
     pagecolor="#ffffff"
     bordercolor="#000000"
     borderopacity="0.25"
     inkscape:showpageshadow="2"
     inkscape:pageopacity="0.0"
     inkscape:pagecheckerboard="0"
     inkscape:deskcolor="#d1d1d1"
     showguides="true"
     inkscape:zoom="40.396794"
     inkscape:cx="19.023787"
     inkscape:cy="6.5970582"
     inkscape:window-width="2560"
     inkscape:window-height="1306"
     inkscape:window-x="0"
     inkscape:window-y="25"
     inkscape:window-maximized="0"
     inkscape:current-layer="svg4" /><path
     d="m 19.949408,13.612107 c -0.06744,4.275425 -4.526099,5.903085 -7.673986,5.895235 -4.9999752,-0.01275 -9.1316687,-3.74857 -9.7352957,-8.586908 0,0 0,0.0064 -1.3149309,0 C 0.69637799,10.917982 -0.01811433,10.528973 2.8145596e-4,9.6952758 0.01892252,8.8375416 0.6951516,8.4787011 1.2278936,8.4676636 H 2.5406168 C 3.0799813,4.1566726 6.4213918,0.71104378 10.682102,0.01401519 11.037508,-0.0453664 11.829998,0.05262182 12.072086,0.92806499 12.281799,1.6871732 11.67719,2.3357351 11.086072,2.4340913 7.9901843,2.9376451 5.5401109,5.376681 5.0193876,8.4676636 l 9.8221234,-0.00122 c 2.822404,0.019868 5.152536,2.3183594 5.107897,5.1456704 z"
     id="path3"
     style="clip-rule:evenodd;display:inline;fill-rule:evenodd;stroke-width:0.0245277;stroke-linejoin:round;stroke-miterlimit:2" /><path
     d="M 12.275912,17.050892 C 8.1187096,17.025138 5.5246585,13.935873 5.0186518,10.920434 l 9.8081422,-0.0037 0.0015,0.0056 c 1.472399,0.01373 2.590618,1.215102 2.66322,2.688728 0.123129,2.494222 -3.477785,3.450313 -5.215574,3.439766 z"
     style="clip-rule:evenodd;display:inline;fill:#ffffff;fill-rule:evenodd;stroke-width:0.0245277;stroke-linejoin:round;stroke-miterlimit:2"
     id="path4" /></svg>
