<?xml version="1.0" encoding="UTF-8" standalone="no"?>
<svg
   width="20"
   height="20"
   version="1.1"
   xml:space="preserve"
   style="clip-rule:evenodd;fill-rule:evenodd;stroke-linejoin:round;stroke-miterlimit:2"
   id="svg4"
   sodipodi:docname="leftGlasses.svg"
   inkscape:version="1.3.2 (091e20e, 2023-11-25)"
   xmlns:inkscape="http://www.inkscape.org/namespaces/inkscape"
   xmlns:sodipodi="http://sodipodi.sourceforge.net/DTD/sodipodi-0.dtd"
   xmlns="http://www.w3.org/2000/svg"
   xmlns:svg="http://www.w3.org/2000/svg"><defs
   id="defs4" /><sodipodi:namedview
   id="namedview4"
   pagecolor="#ffffff"
   bordercolor="#000000"
   borderopacity="0.25"
   inkscape:showpageshadow="2"
   inkscape:pageopacity="0.0"
   inkscape:pagecheckerboard="0"
   inkscape:deskcolor="#d1d1d1"
   showguides="true"
   inkscape:zoom="25.140017"
   inkscape:cx="11.177399"
   inkscape:cy="6.5035756"
   inkscape:window-width="1392"
   inkscape:window-height="1212"
   inkscape:window-x="0"
   inkscape:window-y="25"
   inkscape:window-maximized="0"
   inkscape:current-layer="svg4" />
     <path
   d="m 15.895298,17.834767 c -0.566158,1.310687 -1.16046,2.019631 -2.794036,2.047979 -2.168565,0.03764 -5.1484515,0.146268 -7.5603197,-0.386393 C 4.5567958,19.279096 3.4105246,19.100431 2.9748578,18.036778 2.5745467,17.059123 1.8892961,12.707077 1.6559945,11.373282 1.4545597,11.147926 1.1010019,11.227968 0.8746785,11.206052 -0.18343594,11.104093 -0.10132682,9.3012434 0.9132907,9.1687934 c 0,0 1.428187,0.05408 2.8756802,-0.09052 0.7917831,-0.07885 1.7370847,-0.255372 5.8174194,-0.197008 3.1741107,0.04526 5.2086957,0.591024 5.5175937,0.663681 1.263503,0.297299 2.80427,0.9140506 3.9638,0.8776026 0.742937,-0.02335 1.42121,1.652772 0.01512,1.843824 -1.019502,0.138645 -1.25606,0.327077 -1.788723,1.912195 -0.501493,1.492688 -0.757589,2.125638 -1.418883,3.656202 z"
   id="path1"
   style="clip-rule:evenodd;fill-rule:evenodd;stroke-width:0.0235395;stroke-linejoin:round;stroke-miterlimit:2"
   inkscape:label="frame" />
     <path
   d="M 4.0392525,18.102765 C 3.3837751,17.365711 2.7629557,13.472479 2.6010636,12.254459 2.3035633,10.016857 4.5663326,9.8948884 5.6365424,9.8227074 7.1352083,9.7217024 15.135846,9.5487544 16.50658,11.136015 c 0.808066,0.935491 -0.179569,3.887754 -1.347473,6.314026 -0.549411,1.14179 -1.067186,1.651343 -2.752168,1.667065 -2.008068,0.01906 -7.4382019,0.03049 -8.3676865,-1.014341 z"
   style="clip-rule:evenodd;fill:#ffffff;fill-rule:evenodd;stroke-width:0.0235395;stroke-linejoin:round;stroke-miterlimit:2"
   id="path2"
   inkscape:label="lens" />
     
     </svg>
