<?xml version="1.0" encoding="UTF-8" standalone="no"?>
<svg
   width="40"
   height="20"
   version="1.1"
   xml:space="preserve"
   style="clip-rule:evenodd;fill-rule:evenodd;stroke-linejoin:round;stroke-miterlimit:2"
   id="svg4"
   sodipodi:docname="glasses.svg"
   inkscape:version="1.3.2 (091e20e, 2023-11-25)"
   xmlns:inkscape="http://www.inkscape.org/namespaces/inkscape"
   xmlns:sodipodi="http://sodipodi.sourceforge.net/DTD/sodipodi-0.dtd"
   xmlns="http://www.w3.org/2000/svg"
   xmlns:svg="http://www.w3.org/2000/svg"><sodipodi:namedview
   id="namedview1"
   pagecolor="#ffffff"
   bordercolor="#000000"
   borderopacity="0.25"
   inkscape:showpageshadow="2"
   inkscape:pageopacity="0.0"
   inkscape:pagecheckerboard="0"
   inkscape:deskcolor="#d1d1d1"
   inkscape:zoom="11.35"
   inkscape:cx="19.955947"
   inkscape:cy="9.9559471"
   inkscape:window-width="2560"
   inkscape:window-height="1307"
   inkscape:window-x="0"
   inkscape:window-y="25"
   inkscape:window-maximized="1"
   inkscape:current-layer="svg4" /><defs
   id="defs4" />
     <path
   id="path1"
   style="clip-rule:evenodd;fill-rule:evenodd;stroke-width:0.0248955;stroke-linejoin:round;stroke-miterlimit:2"
   d="M 8.6835938 8.1542969 C 5.5898181 8.149819 4.7327192 8.3020312 4 8.375 C 2.4691248 8.5279288 0.95898438 8.4707031 0.95898438 8.4707031 C -0.11407964 8.6107833 -0.20109778 10.517168 0.91796875 10.625 C 1.1573294 10.648179 1.5311022 10.562443 1.7441406 10.800781 C 1.9908814 12.211409 2.7153011 16.815636 3.1386719 17.849609 C 3.599435 18.974533 4.812678 19.162806 5.8535156 19.392578 C 8.4043182 19.955923 11.556126 19.840591 13.849609 19.800781 C 15.577287 19.7708 16.205917 19.020954 16.804688 17.634766 C 17.504074 16.016034 17.774306 15.346252 18.304688 13.767578 C 18.868034 12.091151 19.119036 11.892725 20.197266 11.746094 C 21.684353 11.544036 20.965421 9.772185 20.179688 9.796875 C 18.953364 9.8354223 17.324568 9.181612 15.988281 8.8671875 C 15.66159 8.790345 13.509297 8.2138846 10.152344 8.1660156 C 9.6129212 8.1582999 9.1255617 8.1549366 8.6835938 8.1542969 z M 8.2148438 9.0976562 C 11.331268 9.0798352 16.363901 9.2917604 17.451172 10.550781 C 18.305785 11.54016 17.26057 14.662479 16.025391 17.228516 C 15.444331 18.436077 14.897279 18.97556 13.115234 18.992188 C 10.991492 19.012347 5.248652 19.022991 4.265625 17.917969 C 3.5723892 17.138458 2.9153585 13.022559 2.7441406 11.734375 C 2.429503 9.3678773 4.8232195 9.238448 5.9550781 9.1621094 C 6.3513271 9.1354034 7.1760357 9.1035966 8.2148438 9.0976562 z " />
     
     <path
   d="m 23.495927,17.635218 c 0.598771,1.38619 1.227309,2.135973 2.954988,2.165954 2.293486,0.03981 5.44503,0.154693 7.995836,-0.408652 1.040838,-0.229772 2.253141,-0.418729 2.713905,-1.543654 0.423371,-1.033974 1.148096,-5.636721 1.394837,-7.04735 0.213038,-0.238338 0.288561,-0.07458 0.527922,-0.0975 1.119068,-0.107832 1.032229,-2.014536 -0.04084,-2.1546163 0,0 -1.212057,-0.022171 -2.742934,-0.1751004 -0.837394,-0.083393 -1.83715,-0.2700829 -6.152535,-0.2083569 -3.356957,0.047869 -5.508745,0.6250706 -5.835437,0.7019132 -1.336288,0.3144249 -2.965812,0.9667054 -4.192137,0.9281581 -0.785734,-0.02469 -1.503079,1.7479803 -0.01599,1.9500383 1.078231,0.146631 1.328416,0.345918 1.891763,2.022347 0.530382,1.578675 0.801231,2.248087 1.500618,3.866821 z"
   id="path3"
   style="clip-rule:evenodd;fill-rule:evenodd;stroke-width:0.0248955;stroke-linejoin:round;stroke-miterlimit:2" />
     <path
   d="m 36.034946,17.918654 c 0.693236,-0.779512 1.349818,-4.897016 1.521036,-6.185201 C 37.87062,9.3669529 35.477503,9.237958 34.345643,9.1616193 32.760646,9.0547954 24.299127,8.8718848 22.849431,10.550581 c -0.854614,0.98938 0.189914,4.11171 1.425095,6.677749 0.58106,1.207563 1.128662,1.746469 2.910708,1.763097 2.123744,0.02016 7.866684,0.03225 8.849712,-1.072773 z"
   style="clip-rule:evenodd;fill:#ffffff;fill-rule:evenodd;stroke-width:0.0248955;stroke-linejoin:round;stroke-miterlimit:2"
   id="path4" /></svg>
