<?xml version="1.0" encoding="UTF-8" standalone="no"?>
<svg
   width="40"
   height="20"
   version="1.1"
   xml:space="preserve"
   style="clip-rule:evenodd;fill-rule:evenodd;stroke-linejoin:round;stroke-miterlimit:2"
   id="svg4"
   xmlns="http://www.w3.org/2000/svg"
   xmlns:svg="http://www.w3.org/2000/svg"><defs
     id="defs4" /><path
     d="m 19.089244,13.025192 c -0.06454,4.091081 -4.330947,5.648561 -7.343106,5.64105 -4.7843904,-0.0122 -8.7379371,-3.586943 -9.3155375,-8.216665 0,0 0,0.0061 -1.2582348,0 C 0.6663493,10.44723 -0.01733617,10.074994 2.66445e-4,9.2772434 0.01810376,8.4564922 0.66517579,8.1131239 1.1749475,8.1025624 H 2.4310699 C 2.9471785,3.9774488 6.144517,0.68038558 10.221517,0.01341086 10.561599,-0.04341037 11.31992,0.05035288 11.55157,0.88804947 11.75224,1.6144271 11.173701,2.2350249 10.60807,2.3291402 7.6456678,2.8109823 5.3012345,5.144854 4.8029632,8.1025624 l 9.3986218,-0.00117 c 2.70071,0.019011 4.930374,2.2183986 4.887659,4.9238036 z"
     id="path3"
     style="clip-rule:evenodd;display:inline;fill-rule:evenodd;stroke-width:0.0234702;stroke-linejoin:round;stroke-miterlimit:2" /><path
     d="m 20.831748,13.025192 c 0.06454,4.091081 4.330947,5.648561 7.343106,5.64105 4.78439,-0.0122 8.737937,-3.586943 9.315538,-8.216665 0,0 0,0.0061 1.258234,0 0.506017,-0.0023 1.189702,-0.374583 1.1721,-1.1723336 -0.01784,-0.8207512 -0.66491,-1.1641195 -1.174681,-1.174681 H 37.489922 C 36.973814,3.9774488 33.776475,0.68038558 29.699475,0.01341086 c -0.340082,-0.05682123 -1.098403,0.03694202 -1.330053,0.87463861 -0.20067,0.72637763 0.377869,1.34697543 0.9435,1.44109073 2.962402,0.4818421 5.306835,2.8157138 5.805107,5.7734222 l -9.398622,-0.00117 c -2.70071,0.019011 -4.930374,2.2183986 -4.887659,4.9238036 z"
     id="path1"
     style="clip-rule:evenodd;display:inline;fill-rule:evenodd;stroke-width:0.0234702;stroke-linejoin:round;stroke-miterlimit:2" /><path
     d="m 28.174385,16.315707 c 3.977956,-0.02464 6.460159,-2.980709 6.944348,-5.86613 l -9.385244,-0.0035 -0.0014,0.0054 c -1.408913,0.01314 -2.478917,1.162711 -2.548389,2.572798 -0.11782,2.386679 3.327833,3.301546 4.990693,3.291454 z"
     style="clip-rule:evenodd;fill:#ffffff;fill-rule:evenodd;stroke-width:0.0234702;stroke-linejoin:round;stroke-miterlimit:2"
     id="path2" /><path
     d="M 11.746607,16.315707 C 7.7686514,16.291063 5.2864483,13.334998 4.8022591,10.449577 l 9.3852439,-0.0035 0.0014,0.0054 c 1.408913,0.01314 2.478917,1.162711 2.548389,2.572798 0.11782,2.386679 -3.327833,3.301546 -4.990693,3.291454 z"
     style="clip-rule:evenodd;display:inline;fill:#ffffff;fill-rule:evenodd;stroke-width:0.0234702;stroke-linejoin:round;stroke-miterlimit:2"
     id="path4" /></svg>
