<?xml version="1.0" encoding="UTF-8" standalone="no"?>
<svg
   width="40"
   height="20"
   version="1.1"
   xml:space="preserve"
   style="clip-rule:evenodd;fill-rule:evenodd;stroke-linejoin:round;stroke-miterlimit:2"
   id="svg4"
   sodipodi:docname="glassesLogo.svg"
   inkscape:version="1.3.2 (091e20e, 2023-11-25)"
   xmlns:inkscape="http://www.inkscape.org/namespaces/inkscape"
   xmlns:sodipodi="http://sodipodi.sourceforge.net/DTD/sodipodi-0.dtd"
   xmlns="http://www.w3.org/2000/svg"
   xmlns:svg="http://www.w3.org/2000/svg"><defs
     id="defs4" /><sodipodi:namedview
     id="namedview4"
     pagecolor="#ffffff"
     bordercolor="#000000"
     borderopacity="0.25"
     inkscape:showpageshadow="2"
     inkscape:pageopacity="0.0"
     inkscape:pagecheckerboard="0"
     inkscape:deskcolor="#d1d1d1"
     showguides="true"
     inkscape:zoom="40.396794"
     inkscape:cx="19.036164"
     inkscape:cy="6.6218126"
     inkscape:window-width="2560"
     inkscape:window-height="1306"
     inkscape:window-x="0"
     inkscape:window-y="25"
     inkscape:window-maximized="0"
     inkscape:current-layer="svg4" /><path
     d="m 3569.63,1479.41 c -2.75,174.31 -184.53,240.67 -312.87,240.35 -203.85,-0.52 -372.3,-152.83 -396.91,-350.09 0,0 0,0.26 -53.61,0 -21.56,-0.1 -50.69,-15.96 -49.94,-49.95 0.76,-34.97 28.33,-49.6 50.05,-50.05 h 53.52 c 21.99,-175.76 158.22,-316.239 331.93,-344.657 14.49,-2.421 46.8,1.574 56.67,37.266 8.55,30.949 -16.1,57.391 -40.2,61.401 -126.22,20.53 -226.11,119.97 -247.34,245.99 l 400.45,-0.05 c 115.07,0.81 210.07,94.52 208.25,209.79 z"
     id="path3"
     style="clip-rule:evenodd;display:inline;fill-rule:evenodd;stroke-linejoin:round;stroke-miterlimit:2"
     transform="matrix(0.02347015,0,0,0.02347015,-64.690508,-21.696783)" /><path
     d="m 3569.63,1479.41 c -2.75,174.31 -184.53,240.67 -312.87,240.35 -203.85,-0.52 -372.3,-152.83 -396.91,-350.09 0,0 0,0.26 -53.61,0 -21.56,-0.1 -50.69,-15.96 -49.94,-49.95 0.76,-34.97 28.33,-49.6 50.05,-50.05 h 53.52 c 21.99,-175.76 158.22,-316.239 331.93,-344.657 14.49,-2.421 46.8,1.574 56.67,37.266 8.55,30.949 -16.1,57.391 -40.2,61.401 -126.22,20.53 -226.11,119.97 -247.34,245.99 l 400.45,-0.05 c 115.07,0.81 210.07,94.52 208.25,209.79 z"
     id="path1"
     style="clip-rule:evenodd;display:inline;fill-rule:evenodd;stroke-linejoin:round;stroke-miterlimit:2"
     transform="matrix(-0.02347015,0,0,0.02347015,104.6115,-21.696783)" /><path
     d="m 3256.78,1619.61 c -169.49,-1.05 -275.25,-127 -295.88,-249.94 l 399.88,-0.15 0.06,0.23 c 60.03,0.56 105.62,49.54 108.58,109.62 5.02,101.69 -141.79,140.67 -212.64,140.24 z"
     style="clip-rule:evenodd;fill-rule:evenodd;stroke-linejoin:round;stroke-miterlimit:2;fill:#ffffff"
     id="path2"
     transform="matrix(-0.02347015,0,0,0.02347015,104.6115,-21.696783)" /><path
     d="m 3256.78,1619.61 c -169.49,-1.05 -275.25,-127 -295.88,-249.94 l 399.88,-0.15 0.06,0.23 c 60.03,0.56 105.62,49.54 108.58,109.62 5.02,101.69 -141.79,140.67 -212.64,140.24 z"
     style="clip-rule:evenodd;fill-rule:evenodd;stroke-linejoin:round;stroke-miterlimit:2;display:inline;fill:#ffffff"
     id="path4"
     transform="matrix(0.02347015,0,0,0.02347015,-64.690508,-21.696783)" /></svg>
