<?xml version="1.0" encoding="UTF-8" standalone="no"?>
<svg
   width="20"
   height="20"
   version="1.1"
   xml:space="preserve"
   style="clip-rule:evenodd;fill-rule:evenodd;stroke-linejoin:round;stroke-miterlimit:2"
   id="svg2"
   sodipodi:docname="LeftLens.svg"
   inkscape:version="1.3.2 (091e20e, 2023-11-25)"
   viewBox="0 0 20 20"
   inkscape:export-filename="LeftLens.png"
   inkscape:export-xdpi="96"
   inkscape:export-ydpi="96"
   xmlns:inkscape="http://www.inkscape.org/namespaces/inkscape"
   xmlns:sodipodi="http://sodipodi.sourceforge.net/DTD/sodipodi-0.dtd"
   xmlns="http://www.w3.org/2000/svg"
   xmlns:svg="http://www.w3.org/2000/svg"><defs
   id="defs2" /><sodipodi:namedview
   id="namedview2"
   pagecolor="#ffffff"
   bordercolor="#000000"
   borderopacity="0.25"
   inkscape:showpageshadow="2"
   inkscape:pageopacity="0.0"
   inkscape:pagecheckerboard="0"
   inkscape:deskcolor="#d1d1d1"
   inkscape:zoom="41.254447"
   inkscape:cx="9.3929267"
   inkscape:cy="10.011042"
   inkscape:window-width="2560"
   inkscape:window-height="1307"
   inkscape:window-x="0"
   inkscape:window-y="25"
   inkscape:window-maximized="1"
   inkscape:current-layer="svg2"
   showguides="true" />
<path
   d="m 16.05037,17.542489 c -0.558861,1.293796 -1.145504,1.993602 -2.758027,2.021585 -2.140617,0.03715 -5.0820996,0.144382 -7.4628843,-0.381413 C 4.8579958,18.968204 3.7264974,18.791841 3.2964453,17.741897 2.9012934,16.776841 2.2248741,12.480886 1.9945793,11.164281 1.7957405,10.941829 0.99671166,11.081038 0.77330502,11.059404 -0.27140228,10.95876 -0.19012175,9.1791441 0.81141962,9.0484007 c 0,0 1.85980858,-0.00682 3.28864668,-0.1495554 0.7815789,-0.077835 1.7146977,-0.2520808 5.7424461,-0.194469 3.1332036,0.044678 5.1415676,0.5834071 5.4464846,0.6551279 1.247219,0.2934672 2.768129,0.9022708 3.912715,0.8662928 0.733362,-0.02305 1.402893,1.631471 0.01492,1.820061 -1.006363,0.136858 -1.239873,0.322861 -1.76567,1.887549 -0.495026,1.47345 -0.747822,2.098244 -1.400592,3.609082 z"
   id="path1"
   inkscape:label="path1"
   style="clip-rule:evenodd;fill-rule:evenodd;stroke-width:0.0232361;stroke-linejoin:round;stroke-miterlimit:2" /><path
   d="M 4.3471224,17.807033 C 3.7000927,17.079479 3.0872743,13.236423 2.9274685,12.034101 2.6338024,9.8253364 4.8674096,9.7049396 5.9238268,9.6336891 7.4031783,9.5339851 15.300706,9.3632666 16.653775,10.930071 c 0.797651,0.923435 -0.177256,3.837648 -1.330108,6.232651 -0.542329,1.127074 -1.053432,1.63006 -2.716698,1.64558 -1.982189,0.01881 -7.342341,0.0301 -8.2598466,-1.001269 z"
   style="clip-rule:evenodd;fill:#ffffff;fill-rule:evenodd;stroke-width:0.0232361;stroke-linejoin:round;stroke-miterlimit:2"
   id="path2" /></svg>
