<?xml version="1.0" encoding="UTF-8" standalone="no"?>
<svg
   width="20"
   height="20"
   version="1.1"
   xml:space="preserve"
   style="clip-rule:evenodd;fill-rule:evenodd;stroke-linejoin:round;stroke-miterlimit:2"
   id="svg2"
   sodipodi:docname="LeftLensLogo.svg"
   inkscape:version="1.3.2 (091e20e, 2023-11-25)"
   xmlns:inkscape="http://www.inkscape.org/namespaces/inkscape"
   xmlns:sodipodi="http://sodipodi.sourceforge.net/DTD/sodipodi-0.dtd"
   xmlns="http://www.w3.org/2000/svg"
   xmlns:svg="http://www.w3.org/2000/svg"><defs
     id="defs2" /><sodipodi:namedview
     id="namedview2"
     pagecolor="#ffffff"
     bordercolor="#000000"
     borderopacity="0.25"
     inkscape:showpageshadow="2"
     inkscape:pageopacity="0.0"
     inkscape:pagecheckerboard="0"
     inkscape:deskcolor="#d1d1d1"
     inkscape:zoom="36.15"
     inkscape:cx="10"
     inkscape:cy="12.946058"
     inkscape:window-width="2560"
     inkscape:window-height="1307"
     inkscape:window-x="0"
     inkscape:window-y="25"
     inkscape:window-maximized="1"
     inkscape:current-layer="svg2"
     showguides="true"
     showborder="false" /><path
     d="m 19.971513,13.867365 c -0.06762,4.286091 -4.53739,5.91781 -7.693129,5.909942 -5.0124478,-0.01279 -9.154448,-3.757922 -9.7595808,-8.608328 0,0 0,0.0064 -1.318211,0 C 0.67045553,11.166479 -0.04581913,10.77654 -0.02737745,9.940763 -0.00868989,9.080889 0.66922609,8.721154 1.203297,8.710089 h 1.3159979 c 0.54071,-4.3217452 3.8904558,-7.77596934 8.1617941,-8.47473674 0.356293,-0.05953 1.150761,0.038703 1.393453,0.91633004 0.210235,0.7610019 -0.395881,1.4111816 -0.988474,1.5097831 C 7.9824567,3.1662755 5.5262715,5.6113957 5.0042492,8.710089 l 9.8466258,-0.0012 c 2.829444,0.01992 5.16539,2.324143 5.120638,5.158506 z"
     id="path1"
     style="clip-rule:evenodd;fill-rule:evenodd;stroke-width:0.0245889;stroke-linejoin:round;stroke-miterlimit:2" /><path
     d="M 12.278876,17.314728 C 8.1113026,17.28891 5.5107805,14.191938 5.0035115,11.168979 l 9.8326095,-0.0037 0.0015,0.0057 c 1.476071,0.01377 2.597079,1.218134 2.669862,2.695435 0.123437,2.500445 -3.48646,3.458921 -5.228583,3.448347 z"
     style="clip-rule:evenodd;fill:#ffffff;fill-rule:evenodd;stroke-width:0.0245889;stroke-linejoin:round;stroke-miterlimit:2"
     id="path2" /></svg>
